<svg width="320" height="96" viewBox="0 0 320 96" fill="none" xmlns="http://www.w3.org/2000/svg">
  <rect x="4" y="8" width="88" height="80" rx="28" fill="#2563EB"/>
  <path d="M34 63V33H51.1481C61.6296 33 67 37.7407 67 46.1111C67 54.4815 61.6296 59.2222 51.1481 59.2222H42.8148V63H34ZM42.8148 52.2222H50.3704C55.2222 52.2222 58.1111 50.0741 58.1111 46.1111C58.1111 42.1111 55.2222 40 50.3704 40H42.8148V52.2222Z" fill="white"/>
  <path d="M114 57V39H122.4V42.8889C124.444 39.9259 127.667 38.4444 131.815 38.4444C139.296 38.4444 144 43.3333 144 51.1852V57H135.593V52.1481C135.593 47.6296 133.222 45.3333 129.296 45.3333C125.111 45.3333 122.4 47.9259 122.4 52.6296V57H114Z" fill="#0F172A"/>
  <path d="M165.368 57.5556C156.664 57.5556 150.442 53.4815 150.442 47.963C150.442 42.4444 156.664 38.3704 165.368 38.3704C174.072 38.3704 180.294 42.4444 180.294 47.963C180.294 53.4815 174.072 57.5556 165.368 57.5556ZM165.368 51.5556C169.368 51.5556 171.812 50.0741 171.812 47.963C171.812 45.8519 169.368 44.3704 165.368 44.3704C161.368 44.3704 158.923 45.8519 158.923 47.963C158.923 50.0741 161.368 51.5556 165.368 51.5556Z" fill="#0F172A"/>
  <path d="M191.552 57L181.404 39H190.589L196.441 50.6296L202.33 39H211.441L201.293 57H191.552Z" fill="#0F172A"/>
  <path d="M224.086 57.5556C217.123 57.5556 212.864 54.7407 212.864 50.3704C212.864 46.1111 216.975 43.7778 224.16 43.1852L232.79 42.4444V41.9259C232.79 39.8519 231.16 38.7407 228.382 38.7407C225.494 38.7407 223.975 39.8519 223.679 41.6667H215.605C216.012 36.8519 220.79 33.9259 228.753 33.9259C237.42 33.9259 241.271 36.9259 241.271 42.8519V57H232.938V53.7778C231.16 56.1852 228.16 57.5556 224.086 57.5556ZM227.531 52.2963C230.864 52.2963 232.79 50.7778 232.79 48.5185V47.6296L226.605 48.1852C223.901 48.4444 222.605 49.1852 222.605 50.5926C222.605 51.963 224.049 52.2963 227.531 52.2963Z" fill="#0F172A"/>
  <path d="M248.877 57V39H257.284V42.7407C259.099 39.9259 262.173 38.4444 266.247 38.4444H268V45.9259H265.962C260.803 45.9259 257.284 48 257.284 52.6667V57H248.877Z" fill="#0F172A"/>
  <text x="112" y="75" fill="#475569" font-family="Manrope, Arial, sans-serif" font-size="14" font-weight="600" letter-spacing="0.28em">PIRNAV</text>
</svg>
